<?xml version="1.0" encoding="UTF-8"?>
<svg id="Layer_1" xmlns="http://www.w3.org/2000/svg" version="1.1" viewBox="0 0 605 259">
  <!-- Generator: Adobe Illustrator 29.1.0, SVG Export Plug-In . SVG Version: 2.1.0 Build 142)  -->
  <defs>
    <style>
      .st0 {
        font-family: MyriadPro-Regular, 'Myriad Pro';
      }

      .st0, .st1 {
        font-size: 14px;
        isolation: isolate;
      }

      .st0, .st1, .st2 {
        fill: #8c8c8c;
      }

      .st1 {
        font-family: CMUSerif-Roman, 'CMU Serif';
      }

      .st3 {
        stroke-dasharray: 5 2;
      }

      .st3, .st4 {
        fill: none;
      }

      .st3, .st4, .st2 {
        stroke: #8c8c8c;
        stroke-miterlimit: 4;
        stroke-width: 1px;
      }
    </style>
  </defs>
  <g id="graph0">
    <g id="clust1">
      <polygon class="st4" points="106.1 251 106.1 67.2 303.7 67.2 303.7 251 106.1 251"/>
    </g>
    <g id="node1">
      <path class="st4" d="M54.1,112.1c0-1.8-12.1-3.3-27-3.3S.2,110.3.2,112.1v30.1c0,1.8,12.1,3.3,27,3.3s27-1.5,27-3.3v-30.1"/>
      <path class="st4" d="M54.1,112.1c0,1.8-12.1,3.3-27,3.3S.2,113.9.2,112.1"/>
      <text class="st1" transform="translate(10.3 131.1)"><tspan x="0" y="0">Input</tspan></text>
    </g>
    <g id="node2">
      <polygon class="st4" points="90.1 53.9 90.1 .5 319.6 .5 319.6 53.9 90.1 53.9"/>
      <text class="st1" transform="translate(95.6 17.8)"><tspan x="0" y="0">Gate: rivermoe.GenericNNClassifier</tspan></text>
      <line class="st4" x1="90.1" y1="27.2" x2="319.6" y2="27.2"/>
      <text class="st1" transform="translate(120 44.5)"><tspan x="0" y="0">rivermoe.SoftMoERegressor</tspan></text>
    </g>
    <g id="edge1">
      <path class="st4" d="M42,108.4c11.4-14.2,28.9-33.4,48.1-45.2,2-1.3,4.1-2.5,6.2-3.6"/>
      <polygon class="st2" points="94.7 56.5 105.2 55 97.9 62.7 94.7 56.5"/>
    </g>
    <g id="node3">
      <path class="st4" d="M286.7,200.3H123.1c-6,0-12,6-12,12v21.5c0,6,6,12,12,12h163.6c6,0,12-6,12-12v-21.5c0-6-6-12-12-12"/>
      <text class="st1" transform="translate(176.3 217.6)"><tspan x="0" y="0">Expert 0:</tspan></text>
      <text class="st1" transform="translate(116.1 236.3)"><tspan x="0" y="0">river.HoeffdingTreeRegressor</tspan></text>
    </g>
    <g id="edge2">
      <path class="st4" d="M41.9,146c11.4,14.3,28.8,33.5,48.2,45.1,3.4,2,6.9,3.9,10.4,5.7"/>
      <polygon class="st2" points="101.8 193.5 109.5 200.8 99 199.8 101.8 193.5"/>
    </g>
    <g id="node5">
      <path class="st4" d="M266.8,72.4h-123.9c-6,0-12,6-12,12v21.5c0,6,6,12,12,12h123.9c6,0,12-6,12-12v-21.5c0-6-6-12-12-12"/>
      <text class="st1" transform="translate(176.3 89.7)"><tspan x="0" y="0">Expert 1:</tspan></text>
      <text class="st1" transform="translate(136.8 108.4)"><tspan x="0" y="0">river.LinearRegression</tspan></text>
    </g>
    <g id="edge6">
      <path class="st4" d="M54.5,122.3c17.4-3.2,41.4-7.5,65-11.8"/>
      <polygon class="st2" points="118.7 107.1 129.1 108.8 119.9 114 118.7 107.1"/>
    </g>
    <g id="node7">
      <path class="st4" d="M269.1,136.4h-128.4c-6,0-12,6-12,12v21.5c0,6,6,12,12,12h128.4c6,0,12-6,12-12v-21.5c0-6-6-12-12-12"/>
      <text class="st1" transform="translate(176.3 153.7)"><tspan x="0" y="0">Expert 2:</tspan></text>
      <text class="st1" transform="translate(134.2 172.4)"><tspan x="0" y="0">river.StatisticRegressor</tspan></text>
    </g>
    <g id="edge10">
      <path class="st4" d="M54.5,131.9c16.9,3.1,39.8,7.2,62.7,11.4"/>
      <polygon class="st2" points="117.6 139.8 126.8 145.1 116.4 146.7 117.6 139.8"/>
    </g>
    <g id="node4">
      <circle class="st4" cx="374.7" cy="173.1" r="19.1"/>
      <text class="st0" transform="translate(369.4 177.7)"><tspan x="0" y="0">×</tspan></text>
    </g>
    <g id="edge4">
      <path class="st3" d="M308,54.3c4.1,2.7,8,5.6,11.7,8.9,29.6,26.6,17.1,46.9,36,81.9.5.9,1,1.8,1.5,2.8"/>
      <polygon class="st2" points="360.1 146 362.3 156.4 354.1 149.7 360.1 146"/>
    </g>
    <g id="node6">
      <circle class="st4" cx="374.7" cy="61.2" r="19.1"/>
      <text class="st0" transform="translate(369.4 65.9)"><tspan x="0" y="0">×</tspan></text>
    </g>
    <g id="edge8">
      <path class="st3" d="M319.7,50.3c8.9,1.8,17.4,3.5,24.8,5"/>
      <polygon class="st2" points="345 51.8 354.1 57.2 343.6 58.7 345 51.8"/>
    </g>
    <g id="node8">
      <circle class="st4" cx="374.7" cy="117.1" r="19.1"/>
      <text class="st0" transform="translate(369.4 121.8)"><tspan x="0" y="0">×</tspan></text>
    </g>
    <g id="edge12">
      <path class="st3" d="M303.2,54.4c5.7,2.7,11.2,5.6,16.5,8.8,13.3,8.1,25.7,20,35.3,30.7"/>
      <polygon class="st2" points="357.4 91.4 361.3 101.2 352.1 95.9 357.4 91.4"/>
    </g>
    <g id="edge3">
      <path class="st4" d="M290.2,199.8c10-2.9,19.9-5.8,29.5-8.8,8.5-2.6,17.6-5.6,25.9-8.3"/>
      <polygon class="st2" points="344.2 179.5 354.8 179.6 346.5 186.1 344.2 179.5"/>
    </g>
    <g id="node9">
      <polygon class="st4" points="483.7 99.2 429.8 99.2 429.8 135.1 483.7 135.1 483.7 99.2"/>
      <text class="st1" transform="translate(451.7 121.1)"><tspan x="0" y="0">Σ</tspan></text>
    </g>
    <g id="edge5">
      <path class="st4" d="M390.7,162.6c8.3-5.8,19-13.3,29.4-20.5"/>
      <polygon class="st2" points="418 139.3 428.2 136.4 422 145 418 139.3"/>
    </g>
    <g id="edge7">
      <path class="st4" d="M279,80.4c23.1-4.7,47.3-9.6,65.4-13.2"/>
      <polygon class="st2" points="343.7 63.7 354.2 65.1 345.1 70.6 343.7 63.7"/>
    </g>
    <g id="edge9">
      <path class="st4" d="M390.7,71.7c8.3,5.8,19,13.3,29.4,20.5"/>
      <polygon class="st2" points="422 89.3 428.2 97.9 418 95 422 89.3"/>
    </g>
    <g id="edge11">
      <path class="st4" d="M281.4,140.2c22.5-5.6,45.8-11.4,63.3-15.8"/>
      <polygon class="st2" points="343.9 121 354.5 122 345.6 127.8 343.9 121"/>
    </g>
    <g id="edge13">
      <path class="st4" d="M394.3,117.1h23.7"/>
      <polygon class="st2" points="417.9 113.6 427.9 117.1 417.9 120.6 417.9 113.6"/>
    </g>
    <g id="node10">
      <ellipse class="st4" cx="562.2" cy="117.1" rx="42.6" ry="18.9"/>
      <text class="st1" transform="translate(539.7 121.1)"><tspan x="0" y="0">Output</tspan></text>
    </g>
    <g id="edge14">
      <path class="st4" d="M484.1,117.1h23.8"/>
      <polygon class="st2" points="507.7 113.6 517.7 117.1 507.7 120.6 507.7 113.6"/>
    </g>
  </g>
</svg>
