<?xml version="1.0" encoding="UTF-8" standalone="no"?>
<!DOCTYPE svg PUBLIC "-//W3C//DTD SVG 1.1//EN"
 "http://www.w3.org/Graphics/SVG/1.1/DTD/svg11.dtd">
<!-- Generated by graphviz version 12.2.1 (20241206.2353)
 -->
<!-- Pages: 1 -->
<svg width="605pt" height="195pt"
 viewBox="0.00 0.00 605.19 195.25" xmlns="http://www.w3.org/2000/svg" xmlns:xlink="http://www.w3.org/1999/xlink">
<g id="graph0" class="graph" transform="scale(1 1) rotate(0) translate(0 195.25)">
<polygon fill="white" stroke="none" points="0,0 0,-195.25 605.19,-195.25 605.19,0 0,0"/>
<g id="clust1" class="cluster">
<title>cluster_experts</title>
<polygon fill="none" stroke="black" points="106,-8 106,-128 303.75,-128 303.75,-8 106,-8"/>
</g>
<!-- Input -->
<g id="node1" class="node">
<title>Input</title>
<path fill="none" stroke="black" d="M54,-115.05C54,-116.89 41.9,-118.39 27,-118.39 12.1,-118.39 0,-116.89 0,-115.05 0,-115.05 0,-84.95 0,-84.95 0,-83.11 12.1,-81.61 27,-81.61 41.9,-81.61 54,-83.11 54,-84.95 54,-84.95 54,-115.05 54,-115.05"/>
<path fill="none" stroke="black" d="M54,-115.05C54,-113.2 41.9,-111.7 27,-111.7 12.1,-111.7 0,-113.2 0,-115.05"/>
<text text-anchor="middle" x="27" y="-96.08" font-family="CMU Serif" font-size="14.00">Input</text>
</g>
<!-- Gate -->
<g id="node2" class="node">
<title>Gate</title>
<polygon fill="none" stroke="black" points="90,-141.25 90,-194.75 319.75,-194.75 319.75,-141.25 90,-141.25"/>
<text text-anchor="middle" x="204.88" y="-177.45" font-family="CMU Serif" font-size="14.00">Gate: rivermoe.GenericNNClassifier</text>
<polyline fill="none" stroke="black" points="90,-168 319.75,-168"/>
<text text-anchor="middle" x="204.75" y="-150.7" font-family="CMU Serif" font-size="14.00">rivermoe.SoftMoERegressor</text>
</g>
<!-- Input&#45;&gt;Gate -->
<g id="edge1" class="edge">
<title>Input&#45;&gt;Gate</title>
<path fill="none" stroke="black" d="M54.38,-114.88C65.22,-120.66 78.02,-127.06 90,-132 94.04,-133.67 98.18,-135.3 102.38,-136.9"/>
<polygon fill="black" stroke="black" points="100.92,-140.09 111.51,-140.27 103.34,-133.52 100.92,-140.09"/>
</g>
<!-- Expert_0 -->
<g id="node3" class="node">
<title>Expert_0</title>
<path fill="none" stroke="black" d="M266.88,-122.75C266.88,-122.75 142.88,-122.75 142.88,-122.75 136.88,-122.75 130.88,-116.75 130.88,-110.75 130.88,-110.75 130.88,-89.25 130.88,-89.25 130.88,-83.25 136.88,-77.25 142.88,-77.25 142.88,-77.25 266.88,-77.25 266.88,-77.25 272.88,-77.25 278.88,-83.25 278.88,-89.25 278.88,-89.25 278.88,-110.75 278.88,-110.75 278.88,-116.75 272.88,-122.75 266.88,-122.75"/>
<text text-anchor="middle" x="204.88" y="-105.45" font-family="CMU Serif" font-size="14.00">Expert 0:</text>
<text text-anchor="middle" x="204.88" y="-86.7" font-family="CMU Serif" font-size="14.00">river.LinearRegression</text>
</g>
<!-- Input&#45;&gt;Expert_0 -->
<g id="edge2" class="edge">
<title>Input&#45;&gt;Expert_0</title>
<path fill="none" stroke="black" d="M54.33,-100C71.71,-100 95.53,-100 119.06,-100"/>
<polygon fill="black" stroke="black" points="119.04,-103.5 129.04,-100 119.04,-96.5 119.04,-103.5"/>
</g>
<!-- Expert_1 -->
<g id="node5" class="node">
<title>Expert_1</title>
<path fill="none" stroke="black" d="M286.75,-58.75C286.75,-58.75 123,-58.75 123,-58.75 117,-58.75 111,-52.75 111,-46.75 111,-46.75 111,-25.25 111,-25.25 111,-19.25 117,-13.25 123,-13.25 123,-13.25 286.75,-13.25 286.75,-13.25 292.75,-13.25 298.75,-19.25 298.75,-25.25 298.75,-25.25 298.75,-46.75 298.75,-46.75 298.75,-52.75 292.75,-58.75 286.75,-58.75"/>
<text text-anchor="middle" x="204.88" y="-41.45" font-family="CMU Serif" font-size="14.00">Expert 1:</text>
<text text-anchor="middle" x="204.88" y="-22.7" font-family="CMU Serif" font-size="14.00">river.HoeffdingTreeRegressor</text>
</g>
<!-- Input&#45;&gt;Expert_1 -->
<g id="edge6" class="edge">
<title>Input&#45;&gt;Expert_1</title>
<path fill="none" stroke="black" d="M54.3,-84.92C65.13,-79.12 77.94,-72.75 90,-68 94.58,-66.19 99.31,-64.45 104.11,-62.76"/>
<polygon fill="black" stroke="black" points="104.93,-66.18 113.27,-59.66 102.68,-59.55 104.93,-66.18"/>
</g>
<!-- Combine_0 -->
<g id="node4" class="node">
<title>Combine_0</title>
<ellipse fill="none" stroke="black" cx="374.87" cy="-134" rx="19.12" ry="19.12"/>
<text text-anchor="middle" x="374.87" y="-129.32" font-family="CMU Serif" font-size="14.00">×</text>
</g>
<!-- Gate&#45;&gt;Combine_0 -->
<g id="edge4" class="edge">
<title>Gate&#45;&gt;Combine_0</title>
<path fill="none" stroke="black" stroke-dasharray="5,2" d="M319.79,-144.94C328.74,-143.13 337.17,-141.43 344.6,-139.92"/>
<polygon fill="black" stroke="black" points="345.11,-143.39 354.22,-137.98 343.72,-136.53 345.11,-143.39"/>
</g>
<!-- Combine_1 -->
<g id="node6" class="node">
<title>Combine_1</title>
<ellipse fill="none" stroke="black" cx="374.87" cy="-78" rx="19.12" ry="19.12"/>
<text text-anchor="middle" x="374.87" y="-73.33" font-family="CMU Serif" font-size="14.00">×</text>
</g>
<!-- Gate&#45;&gt;Combine_1 -->
<g id="edge8" class="edge">
<title>Gate&#45;&gt;Combine_1</title>
<path fill="none" stroke="black" stroke-dasharray="5,2" d="M303.28,-140.77C308.98,-138.09 314.52,-135.17 319.75,-132 333.05,-123.93 345.51,-111.94 355.12,-101.3"/>
<polygon fill="black" stroke="black" points="357.59,-103.79 361.48,-93.94 352.29,-99.22 357.59,-103.79"/>
</g>
<!-- Expert_0&#45;&gt;Combine_0 -->
<g id="edge3" class="edge">
<title>Expert_0&#45;&gt;Combine_0</title>
<path fill="none" stroke="black" d="M279.07,-114.81C302.17,-119.49 326.38,-124.39 344.55,-128.07"/>
<polygon fill="black" stroke="black" points="343.83,-131.49 354.32,-130.05 345.22,-124.63 343.83,-131.49"/>
</g>
<!-- Combine -->
<g id="node7" class="node">
<title>Combine</title>
<polygon fill="none" stroke="black" points="483.98,-124 429.98,-124 429.98,-88 483.98,-88 483.98,-124"/>
<text text-anchor="middle" x="456.98" y="-102.08" font-family="CMU Serif" font-size="14.00">Σ</text>
</g>
<!-- Combine_0&#45;&gt;Combine -->
<g id="edge5" class="edge">
<title>Combine_0&#45;&gt;Combine</title>
<path fill="none" stroke="black" d="M393.25,-127.92C400.77,-125.29 409.89,-122.11 418.82,-118.99"/>
<polygon fill="black" stroke="black" points="419.77,-122.36 428.06,-115.76 417.46,-115.75 419.77,-122.36"/>
</g>
<!-- Expert_1&#45;&gt;Combine_1 -->
<g id="edge7" class="edge">
<title>Expert_1&#45;&gt;Combine_1</title>
<path fill="none" stroke="black" d="M298.71,-59.21C315.45,-63.39 331.71,-67.46 344.79,-70.73"/>
<polygon fill="black" stroke="black" points="343.83,-74.1 354.38,-73.13 345.53,-67.31 343.83,-74.1"/>
</g>
<!-- Combine_1&#45;&gt;Combine -->
<g id="edge9" class="edge">
<title>Combine_1&#45;&gt;Combine</title>
<path fill="none" stroke="black" d="M393.25,-84.08C400.77,-86.71 409.89,-89.89 418.82,-93.01"/>
<polygon fill="black" stroke="black" points="417.46,-96.25 428.06,-96.24 419.77,-89.64 417.46,-96.25"/>
</g>
<!-- Output -->
<g id="node8" class="node">
<title>Output</title>
<ellipse fill="none" stroke="black" cx="562.58" cy="-106" rx="42.6" ry="18.92"/>
<text text-anchor="middle" x="562.58" y="-102.08" font-family="CMU Serif" font-size="14.00">Output</text>
</g>
<!-- Combine&#45;&gt;Output -->
<g id="edge10" class="edge">
<title>Combine&#45;&gt;Output</title>
<path fill="none" stroke="black" d="M484.39,-106C491.73,-106 499.97,-106 508.26,-106"/>
<polygon fill="black" stroke="black" points="508,-109.5 518,-106 508,-102.5 508,-109.5"/>
</g>
</g>
</svg>
