<?xml version="1.0" encoding="UTF-8"?>
<svg id="Layer_1" xmlns="http://www.w3.org/2000/svg" xmlns:xlink="http://www.w3.org/1999/xlink" version="1.1" viewBox="0 0 576 253.9">
  <!-- Generator: Adobe Illustrator 29.1.0, SVG Export Plug-In . SVG Version: 2.1.0 Build 142)  -->
  <defs>
    <style>
      .st0 {
        fill: #286bc8;
      }

      .st1, .st2 {
        stroke-miterlimit: 10;
      }

      .st1, .st2, .st3, .st4 {
        fill: none;
      }

      .st1, .st2, .st4 {
        stroke: #286bc8;
      }

      .st1, .st4 {
        stroke-width: 5px;
      }

      .st2 {
        stroke-width: 6.5px;
      }

      .st3 {
        clip-rule: evenodd;
      }

      .st5 {
        clip-path: url(#clippath);
      }
    </style>
    <clipPath id="clippath">
      <polyline class="st3" points="0 252.4 0 0 576 0 576 252.4"/>
    </clipPath>
  </defs>
  <g class="st5">
    <path class="st0" d="M174.4,123.1c1.4.3,3,.5,4.6.5l-.2,5c-1.9,0-3.7-.3-5.3-.6l1-4.9ZM166.3,119.6c1.1.9,2.4,1.6,3.8,2.2l-2,4.6c-1.8-.8-3.4-1.7-4.9-2.8l3-4ZM160.9,112.7c.6,1.4,1.4,2.7,2.3,3.8l-4,3.1c-1.1-1.4-2.1-3-2.9-4.8l4.6-2.1ZM158.6,103.7c.2,1.7.5,3.2.9,4.7l-4.9,1.3c-.4-1.7-.8-3.4-1-5.3l5-.6ZM158.1,93.7c0,1.2.1,2.4.1,3.7s0,1.1,0,1.6h-5c0-.4,0-1,0-1.6,0-1.2,0-2.3,0-3.4l5-.3ZM156.3,83.3c.5,1.6.9,3.4,1.3,5.2l-5,.8c-.3-1.6-.6-3.1-1.1-4.5l4.8-1.5ZM150.8,73.6c1.3,1.3,2.4,2.9,3.3,4.6l-4.4,2.4c-.7-1.3-1.6-2.5-2.6-3.6l3.7-3.4ZM141.3,67.7c1.8.6,3.5,1.4,5.1,2.3l-2.6,4.3c-1.2-.7-2.6-1.4-4-1.8l1.6-4.8ZM130.5,66.2c1.9,0,3.7.1,5.4.3l-.7,5c-1.5-.2-3.1-.3-4.7-.3v-5Z"/>
    <path class="st4" d="M130.5,68.7c0,.9,0,1.9-.3,2.8-.2.9-.5,1.8-.8,2.7-.4.9-.8,1.7-1.3,2.5-.5.8-1.1,1.5-1.8,2.2-.7.7-1.4,1.3-2.2,1.8-.8.5-1.6,1-2.5,1.3-.9.4-1.8.6-2.7.8s-1.9.3-2.8.3-1.9,0-2.8-.3c-.9-.2-1.8-.5-2.7-.8-.9-.4-1.7-.8-2.5-1.3-.8-.5-1.5-1.1-2.2-1.8-.7-.7-1.3-1.4-1.8-2.2-.5-.8-1-1.6-1.3-2.5-.4-.9-.6-1.8-.8-2.7-.2-.9-.3-1.9-.3-2.8,0-.9,0-1.9.3-2.8.2-.9.5-1.8.8-2.7.4-.9.8-1.7,1.3-2.5.5-.8,1.1-1.5,1.8-2.2.7-.7,1.4-1.3,2.2-1.8.8-.5,1.6-1,2.5-1.3.9-.4,1.8-.6,2.7-.8.9-.2,1.9-.3,2.8-.3s1.9,0,2.8.3c.9.2,1.8.5,2.7.8.9.4,1.7.8,2.5,1.3.8.5,1.5,1.1,2.2,1.8.7.7,1.3,1.4,1.8,2.2.5.8,1,1.6,1.3,2.5.4.9.6,1.8.8,2.7.2.9.3,1.9.3,2.8Z"/>
    <path class="st1" d="M51.4,126.2c16.8,0,25.2-9.6,25.2-28.8s8.4-28.8,25.2-28.8"/>
    <path class="st1" d="M51.4,126.2c16.8,0,25.2,9.6,25.2,28.8s8.4,28.8,25.2,28.8"/>
    <path class="st0" d="M173.4,124.4c1.7-.3,3.5-.5,5.3-.6l.2,5c-1.6,0-3.2.3-4.6.5l-1-4.9ZM163.2,128.8c1.5-1.1,3.1-2.1,4.9-2.8l2,4.6c-1.4.6-2.7,1.3-3.8,2.2l-3-4ZM156.4,137.6c.8-1.8,1.8-3.4,2.9-4.8l4,3.1c-.9,1.1-1.6,2.4-2.3,3.8l-4.6-2.1ZM153.6,148.1c.2-1.9.6-3.7,1-5.3l4.9,1.3c-.4,1.5-.7,3-.9,4.7l-5-.6ZM153.1,158.4c0-1.1,0-2.2,0-3.4s0-1.1,0-1.7h5c0,.6,0,1.2,0,1.7,0,1.3,0,2.5-.1,3.7l-5-.3ZM151.5,167.6c.4-1.4.8-2.9,1.1-4.5l5,.8c-.3,1.9-.7,3.6-1.3,5.2l-4.8-1.5ZM147.1,175.3c1-1,1.8-2.2,2.6-3.6l4.4,2.4c-.9,1.7-2,3.2-3.3,4.6l-3.7-3.4ZM139.7,179.9c1.5-.5,2.8-1.1,4-1.8l2.6,4.3c-1.6,1-3.2,1.7-5.1,2.3l-1.6-4.8ZM130.5,181.2c1.7,0,3.2-.1,4.7-.3l.7,5c-1.7.2-3.5.3-5.4.3v-5Z"/>
    <path class="st4" d="M130.5,183.7c0,.9,0,1.9-.3,2.8-.2.9-.5,1.8-.8,2.7-.4.9-.8,1.7-1.3,2.5-.5.8-1.1,1.5-1.8,2.2-.7.7-1.4,1.3-2.2,1.8-.8.5-1.6,1-2.5,1.3-.9.4-1.8.6-2.7.8-.9.2-1.9.3-2.8.3s-1.9,0-2.8-.3c-.9-.2-1.8-.5-2.7-.8-.9-.4-1.7-.8-2.5-1.3-.8-.5-1.5-1.1-2.2-1.8-.7-.7-1.3-1.4-1.8-2.2-.5-.8-1-1.6-1.3-2.5-.4-.9-.6-1.8-.8-2.7-.2-.9-.3-1.9-.3-2.8,0-.9,0-1.9.3-2.8.2-.9.5-1.8.8-2.7.4-.9.8-1.7,1.3-2.5s1.1-1.5,1.8-2.2c.7-.7,1.4-1.3,2.2-1.8.8-.5,1.6-1,2.5-1.3s1.8-.6,2.7-.8c.9-.2,1.9-.3,2.8-.3s1.9,0,2.8.3c.9.2,1.8.5,2.7.8.9.4,1.7.8,2.5,1.3.8.5,1.5,1.1,2.2,1.8.7.7,1.3,1.4,1.8,2.2.5.8,1,1.6,1.3,2.5.4.9.6,1.8.8,2.7.2.9.3,1.9.3,2.8Z"/>
    <rect class="st0" x="29.5" y="111.5" width="28.8" height="28.8"/>
    <rect class="st0" x="180.5" y="111.5" width="28.8" height="28.8"/>
    <path class="st0" d="M134.1,126.2c0,.6,0,1.2,0,1.8,0,.6-.1,1.2-.3,1.7-.1.6-.3,1.1-.4,1.7-.2.6-.4,1.1-.6,1.7-.2.5-.5,1.1-.8,1.6-.3.5-.6,1-.9,1.5-.3.5-.7,1-1.1,1.4-.4.5-.8.9-1.2,1.3-.4.4-.9.8-1.3,1.2-.5.4-.9.7-1.4,1.1-.5.3-1,.6-1.5.9-.5.3-1.1.5-1.6.8s-1.1.4-1.7.6c-.6.2-1.1.3-1.7.4-.6.1-1.2.2-1.7.3-.6,0-1.2,0-1.8,0s-1.2,0-1.8,0c-.6,0-1.2-.1-1.7-.3-.6-.1-1.1-.3-1.7-.4-.6-.2-1.1-.4-1.7-.6-.5-.2-1.1-.5-1.6-.8-.5-.3-1-.6-1.5-.9-.5-.3-1-.7-1.4-1.1-.5-.4-.9-.8-1.3-1.2-.4-.4-.8-.9-1.2-1.3-.4-.5-.7-.9-1.1-1.4-.3-.5-.6-1-.9-1.5-.3-.5-.5-1.1-.8-1.6-.2-.5-.4-1.1-.6-1.7-.2-.6-.3-1.1-.4-1.7-.1-.6-.2-1.2-.3-1.7,0-.6,0-1.2,0-1.8,0-.6,0-1.2,0-1.8,0-.6.1-1.2.3-1.7.1-.6.3-1.1.4-1.7.2-.6.4-1.1.6-1.7.2-.5.5-1.1.8-1.6.3-.5.6-1,.9-1.5.3-.5.7-1,1.1-1.4.4-.5.8-.9,1.2-1.3.4-.4.9-.8,1.3-1.2.5-.4.9-.7,1.4-1.1.5-.3,1-.6,1.5-.9.5-.3,1.1-.5,1.6-.8.5-.2,1.1-.4,1.7-.6.6-.2,1.1-.3,1.7-.4.6-.1,1.2-.2,1.7-.3s1.2,0,1.8,0c.6,0,1.2,0,1.8,0s1.2.1,1.7.3c.6.1,1.1.3,1.7.4.6.2,1.1.4,1.7.6.5.2,1.1.5,1.6.8.5.3,1,.6,1.5.9.5.3,1,.7,1.4,1.1.5.4.9.8,1.3,1.2.4.4.8.9,1.2,1.3.4.5.7.9,1.1,1.4.3.5.6,1,.9,1.5s.5,1.1.8,1.6c.2.5.4,1.1.6,1.7.2.6.3,1.1.4,1.7.1.6.2,1.2.3,1.7,0,.6,0,1.2,0,1.8Z"/>
    <path class="st2" d="M51.4,126.2h129.4"/>
    <g>
      <path class="st0" d="M280.9,112.3c0,.9-.1,1.9-.4,3-.3,1.1-.6,2-1.1,2.7-.6.9-1.2,1.6-1.9,2-.7.5-1.7.7-3,.7s-3.1-.4-4-1.3c-.9-.9-1.3-1.9-1.3-2.9s.2-2.2.7-3.4c.5-1.3,1-2.5,1.5-3.8-.4,0-1,.1-1.9.3-.9.2-2,.6-3.3,1.3-1.3.6-2.7,1.6-4.3,2.8-1.6,1.2-3.3,2.9-5.2,5l-7.9,35.2h-9.2l7.2-31.9c.2-.8.4-2,.7-3.5.3-1.6.5-2.7.5-3.5,0-1.8-.3-3.1-.9-3.7-.6-.6-1.9-.9-3.7-.9s-1.6.1-2.8.4c-1.1.2-2,.5-2.6.6l.7-3.1c2.6-1.1,4.8-2,6.8-2.6,2-.6,3.7-.8,5.1-.8,2.6,0,4.5.7,5.6,2.1,1.1,1.4,1.7,3.6,1.7,6.4h.3c3.9-3.4,6.9-5.7,8.9-7.1,2-1.3,4.1-2,6.3-2s2.1.1,3,.4c1,.3,1.8.7,2.5,1.3.7.7,1.3,1.5,1.6,2.4.3.9.5,2.2.5,3.9Z"/>
      <path class="st0" d="M307.5,148.5l-.7,3.1c-3,1.2-5.4,2.1-7.2,2.5-1.8.5-3.3.7-4.6.7-2.6,0-4.6-.7-5.9-2-1.3-1.4-2-3-2-5s0-1.5.2-2.4c.1-.8.3-1.9.6-3.1l5.2-20.9c.3-1.1.5-2.4.8-3.7.2-1.3.4-2.4.4-3.3,0-1.8-.3-3.1-.9-3.7-.6-.6-1.8-.9-3.7-.9s-1.7.1-2.9.3c-1.2.2-2.1.4-2.7.6l.7-3.1c2.6-1.1,4.8-2,6.9-2.6,2-.6,3.6-.8,4.8-.8,2.7,0,4.6.6,5.8,1.9s1.8,3,1.8,5.2,0,1.4-.2,2.4c-.1,1-.3,2-.6,3.1l-5.2,20.9c-.3,1.3-.6,2.5-.9,3.8s-.4,2.2-.4,3c0,1.9.4,3.2,1.2,3.8.8.7,2.2,1,4,1s1.5,0,2.7-.2c1.2-.2,2-.4,2.7-.6ZM311,85.7c0,1.9-.6,3.5-1.8,4.9-1.2,1.4-2.7,2.1-4.5,2.1s-3.1-.7-4.3-2c-1.2-1.3-1.8-2.8-1.8-4.5s.6-3.4,1.8-4.7c1.2-1.3,2.7-2,4.3-2s3.4.6,4.6,1.9c1.2,1.3,1.8,2.7,1.8,4.4Z"/>
      <path class="st0" d="M361.5,113.3c0,5-.8,10-2.3,15.2-1.5,5.1-3.6,9.6-6.2,13.5-2.7,4-5.8,7.2-9.5,9.7-3.7,2.5-7.7,3.7-12.1,3.7s-7.7-1.2-10.3-3.6c-2.6-2.4-3.8-5.6-3.8-9.6s0-1.6.3-2.6c.2-1,.3-1.6.4-1.9l4.3-15.7c.3-1.3.6-2.5.9-3.8s.4-2.3.4-3.2c0-1.8-.3-3.1-1-3.7-.6-.6-1.9-.9-3.8-.9s-1.6.1-2.8.4c-1.2.3-2.1.5-2.7.7l.7-3.1c2.6-1.1,4.8-2,6.8-2.6,2-.6,3.6-.9,4.7-.9,2.6,0,4.6.6,5.8,1.8,1.3,1.2,1.9,3,1.9,5.3s0,1.5-.2,2.4c-.1.9-.3,2-.6,3.1l-4.7,18.4c-.3,1.2-.6,2.4-.7,3.6s-.2,1.9-.2,2.2c0,1.7.3,3.1.8,4.2.5,1.1,1.2,1.9,2,2.5.8.6,1.6,1,2.6,1.2.9.2,1.9.3,2.9.3,2.2,0,4.5-.7,6.9-2.1,2.4-1.4,4.4-3.2,6.2-5.5,1.9-2.5,3.5-5.2,4.7-8.2,1.2-3,1.8-6.4,1.8-10.1s-.3-3.5-.8-4.6c-.5-1.1-1.1-2-1.8-2.8-.7-.8-1.3-1.7-1.8-2.6-.5-.9-.8-2.2-.8-3.8s.6-3.3,1.9-4.3c1.2-1,2.6-1.5,3.9-1.5s3.4.8,4.5,2.3c1.1,1.6,1.6,3.8,1.6,6.8Z"/>
      <path class="st0" d="M410.1,114.5c0,3.5-1.1,6.5-3.3,9-2.2,2.5-5.4,4.5-9.5,6-3,1.1-6.1,2-9.2,2.7-3.1.7-6.6,1.3-10.3,1.7,0,5.2,1,9.1,2.9,11.9s4.7,4.1,8.4,4.1,6.2-.8,8.7-2.5c2.5-1.6,5-4.1,7.4-7.3l2.8,2.1c-2.6,4-5.9,7.2-9.8,9.6s-8,3.6-12.2,3.6-10.2-1.6-13.3-4.9c-3.1-3.2-4.6-7.9-4.6-13.8s.6-8.1,1.9-11.8c1.3-3.8,3.2-7.2,5.7-10.3,2.4-3.1,5.4-5.5,8.9-7.4,3.5-1.9,7.4-2.8,11.7-2.8s8.2,1,10.5,2.9c2.3,1.9,3.4,4.4,3.4,7.4ZM401,113.3c0-1.3-.2-2.3-.5-3s-.8-1.3-1.4-1.6c-.6-.4-1.2-.6-1.9-.7-.7,0-1.3-.1-2-.1-3.9,0-7.6,2.2-10.9,6.5-3.3,4.3-5.4,9.7-6.3,16.1,2.3-.3,4.9-.8,7.8-1.4,2.9-.6,5.3-1.4,7.2-2.4,2.7-1.4,4.7-3.2,6.1-5.4,1.3-2.2,2-4.8,2-7.9Z"/>
      <path class="st0" d="M458.9,112.3c0,.9-.1,1.9-.4,3-.3,1.1-.6,2-1.1,2.7-.6.9-1.2,1.6-1.9,2-.7.5-1.7.7-3,.7s-3.1-.4-4-1.3c-.9-.9-1.3-1.9-1.3-2.9s.2-2.2.7-3.4c.5-1.3,1-2.5,1.5-3.8-.4,0-1,.1-1.9.3-.9.2-2,.6-3.3,1.3-1.3.6-2.7,1.6-4.3,2.8-1.6,1.2-3.3,2.9-5.2,5l-7.9,35.2h-9.2l7.2-31.9c.2-.8.4-2,.7-3.5s.5-2.7.5-3.5c0-1.8-.3-3.1-.9-3.7-.6-.6-1.9-.9-3.7-.9s-1.6.1-2.8.4c-1.1.2-2,.5-2.6.6l.7-3.1c2.6-1.1,4.8-2,6.8-2.6,2-.6,3.7-.8,5.1-.8,2.6,0,4.5.7,5.6,2.1,1.1,1.4,1.7,3.6,1.7,6.4h.3c3.9-3.4,6.9-5.7,8.9-7.1,2-1.3,4.1-2,6.3-2s2.1.1,3,.4c1,.3,1.8.7,2.5,1.3.7.7,1.3,1.5,1.6,2.4.3.9.5,2.2.5,3.9Z"/>
    </g>
    <g>
      <path class="st0" d="M470.7,154.6h-11v-1.2c.4,0,.9,0,1.5-.1.6,0,1.1-.2,1.3-.3.4-.2.6-.5.8-.8.2-.3.3-.6.3-1.1v-18.1h-.3l-8.5,21.2h-.9l-8.1-21.7h-.2v14.9c0,1.4,0,2.5.3,3.3s.5,1.3.8,1.6c.3.2.8.5,1.6.7.8.2,1.3.3,1.6.4v1.2h-10.1v-1.2c.5,0,1.1-.1,1.7-.3s1-.3,1.3-.6c.4-.3.7-.8.8-1.5s.2-1.8.2-3.4v-12.7c0-.7,0-1.3-.3-1.8-.2-.5-.4-.8-.8-1.1-.4-.3-.8-.5-1.3-.7-.5-.2-1-.2-1.6-.3v-1.2h8.5l7.1,18.7,6.1-15.6c.2-.6.4-1.2.6-1.8.2-.6.2-1,.3-1.3h8.1v1.2c-.3,0-.7,0-1.3.2s-.9.2-1.1.3c-.4.1-.7.4-.8.7-.1.3-.2.7-.2,1.1v18c0,.4,0,.8.2,1,.1.3.4.5.8.7.2.1.6.2,1.1.3s1,.2,1.3.2v1.2Z"/>
      <path class="st0" d="M490.5,145.8c0,1.2-.2,2.4-.6,3.6-.4,1.2-.9,2.2-1.7,3-.8.9-1.7,1.6-2.8,2.1-1.1.5-2.3.7-3.6.7s-2.2-.2-3.1-.6c-1-.4-1.9-1-2.7-1.8-.8-.8-1.4-1.7-1.8-2.9-.5-1.1-.7-2.4-.7-3.8,0-2.7.8-4.9,2.4-6.6,1.6-1.7,3.6-2.6,6.2-2.6s4.4.8,6,2.4,2.4,3.8,2.4,6.5ZM486.9,145.8c0-.9,0-1.8-.3-2.8s-.4-1.8-.8-2.5c-.4-.7-.9-1.3-1.5-1.7-.6-.4-1.4-.7-2.2-.7s-1.7.2-2.3.7c-.6.4-1.2,1.1-1.6,1.8-.4.7-.6,1.5-.8,2.4s-.2,1.8-.2,2.7,0,2.2.3,3.1c.2,1,.5,1.8.9,2.6.4.7.9,1.3,1.5,1.8.6.4,1.4.6,2.2.6,1.5,0,2.6-.7,3.5-2.1.9-1.4,1.3-3.4,1.3-5.9Z"/>
      <path class="st0" d="M514.4,147.3l-.5,7.3h-20.7v-1.2c.4,0,.8,0,1.4-.1s1-.2,1.1-.2c.4-.2.6-.4.8-.7s.2-.6.2-1.1v-17.9c0-.4,0-.7-.2-1-.1-.3-.4-.5-.8-.7-.3-.2-.7-.3-1.3-.4-.5-.1-1-.2-1.3-.2v-1.2h19.3v6h-1.3c-.2-.9-.7-1.8-1.5-2.8s-1.5-1.5-2.2-1.6c-.4,0-.8,0-1.3-.1-.5,0-1.1,0-1.7,0h-3.9v9.9h2.8c.9,0,1.6,0,2-.3.4-.2.8-.5,1.1-.9.3-.3.5-.8.7-1.4.2-.6.3-1.1.4-1.6h1.3v9.8h-1.3c0-.6-.2-1.2-.4-1.8-.2-.6-.4-1.1-.6-1.4-.4-.5-.8-.8-1.2-.9-.5-.1-1.1-.2-1.8-.2h-2.8v7.5c0,.7,0,1.3.2,1.8.1.4.3.8.6,1,.3.2.7.4,1.2.4.5,0,1.3,0,2.2,0h1.5c.6,0,1.2,0,1.6,0,.4,0,.9-.1,1.4-.3.5-.1.8-.3,1-.5.5-.6,1.1-1.4,1.7-2.6.6-1.1,1-2,1.1-2.5h1.3Z"/>
    </g>
  </g>
</svg>
